<?xml version="1.0" encoding="UTF-8" standalone="no"?>
<!-- Created with Inkscape (http://www.inkscape.org/) -->

<svg
   version="1.1"
   id="svg1"
   width="512"
   height="512"
   viewBox="0 0 512 511.99999"
   sodipodi:docname="image.svg"
   inkscape:version="1.4.2 (f4327f4, 2025-05-13)"
   inkscape:export-filename="image-512.png"
   inkscape:export-xdpi="96"
   inkscape:export-ydpi="96"
   xmlns:inkscape="http://www.inkscape.org/namespaces/inkscape"
   xmlns:sodipodi="http://sodipodi.sourceforge.net/DTD/sodipodi-0.dtd"
   xmlns="http://www.w3.org/2000/svg"
   xmlns:svg="http://www.w3.org/2000/svg">
  <defs
     id="defs1" />
  <sodipodi:namedview
     id="namedview1"
     pagecolor="#505050"
     bordercolor="#eeeeee"
     borderopacity="1"
     inkscape:showpageshadow="0"
     inkscape:pageopacity="0"
     inkscape:pagecheckerboard="0"
     inkscape:deskcolor="#505050"
     showgrid="false"
     inkscape:lockguides="true"
     inkscape:export-bgcolor="#ffffff00"
     inkscape:zoom="1.4142136"
     inkscape:cx="246.42671"
     inkscape:cy="242.89117"
     inkscape:window-width="1920"
     inkscape:window-height="1009"
     inkscape:window-x="-8"
     inkscape:window-y="-8"
     inkscape:window-maximized="1"
     inkscape:current-layer="g1" />
  <g
     inkscape:groupmode="layer"
     inkscape:label="Image"
     id="g1"
     transform="translate(-32.467407,-10.382095)">
    <path
       d="M 261.78837,515.37232 V 344.61295 A 83.661235,83.661235 0 0 1 206.0142,266.38209 83.661235,83.661235 0 0 1 261.78837,188.1512 V 17.391874 A 250.9837,250.9837 0 0 0 38.691757,266.38209 250.9837,250.9837 0 0 0 261.78837,515.37232 Z"
       style="fill:#ef79b3;fill-opacity:1;stroke:#2c2c2c;stroke-width:5.57741;stroke-linecap:round;stroke-linejoin:round;stroke-dasharray:none;stroke-dashoffset:4.71224;stroke-opacity:1"
       id="path46-7"
       inkscape:export-filename="image.svg"
       inkscape:export-xdpi="96"
       inkscape:export-ydpi="96" />
    <path
       d="m 367.90499,294.27088 a 83.661235,83.661235 0 0 1 -50.3438,50.34378 V 515.37402 A 250.9837,250.9837 0 0 0 538.66434,294.27088 Z"
       style="fill:#ef79b3;fill-opacity:1;stroke:#2c2c2c;stroke-width:5.57741;stroke-linecap:round;stroke-linejoin:round;stroke-dasharray:none;stroke-dashoffset:4.71224;stroke-opacity:1"
       id="path48" />
    <path
       d="M 317.56119,17.001406 V 187.53743 a 83.661235,83.661235 0 0 1 50.95929,50.95928 H 539.05649 A 250.9837,250.9837 0 0 0 317.56119,17.001406 Z"
       style="fill:#ef79b3;fill-opacity:1;stroke:#2c2c2c;stroke-width:5.57741;stroke-linecap:round;stroke-linejoin:round;stroke-dasharray:none;stroke-dashoffset:0;stroke-opacity:1;paint-order:normal"
       id="path47" />
    <path
       d="m 150.25096,474.50575 c -10.41248,-7.35859 -25.23912,-29.72369 -26.20875,-34.23372 -5.21987,-24.27919 26.46987,-34.04804 22.7491,-52.46742 -3.74943,-18.56147 -30.35935,-25.13019 -38.77628,-44.03751 -9.070041,-20.37437 39.73638,-53.85777 33.4831,-68.95896 -7.16177,-17.29515 -46.115831,-35.59052 -41.11244,-48.78046 7.16898,-18.89893 35.26222,-20.46767 37.67557,-39.64118 2.28115,-18.12314 -36.99195,-16.89438 -30.00832,-34.85232 6.84766,-17.60844 24.0534,-34.48389 7.75834,-44.01207 C 98.915079,97.642394 126.72144,76.903604 130.63743,73.117014 72.681069,120.58771 38.960521,191.46657 38.691757,266.38209 c 0.190524,83.6279 42.021552,161.66745 111.559203,208.12366 z"
       style="fill:#d8934f;fill-opacity:1;stroke:#2c2c2c;stroke-width:5.57741;stroke-linecap:round;stroke-dasharray:none;stroke-dashoffset:4.71224;stroke-opacity:1"
       id="path50"
       sodipodi:nodetypes="cssssssssccc" />
  </g>
</svg>
